<svg xmlns="http://www.w3.org/2000/svg" width="256" height="256" viewBox="0 0 29 29" role="img" aria-label="QR code preview for free" shape-rendering="crispEdges" style="&#10;    border-radius: 20px;&#10;"><defs><linearGradient id="_r_18_-fg-gradient" x1="0%" y1="0%" x2="100%" y2="0%" gradientUnits="objectBoundingBox" gradientTransform="rotate(135, 0.5, 0.5)"><stop offset="0%" stop-color="#000000"/><stop offset="100%" stop-color="#666666"/></linearGradient><linearGradient id="_r_18_-bg-gradient" x1="0%" y1="0%" x2="100%" y2="0%" gradientUnits="objectBoundingBox" gradientTransform="rotate(135, 0.5, 0.5)"><stop offset="0%" stop-color="#fe9a00"/><stop offset="100%" stop-color="#f54a00"/></linearGradient></defs><path fill="url(#_r_18_-bg-gradient)" d="M0,0 h29v29H0z" shape-rendering="crispEdges" style="&#10;    border-radius: 10px;&#10;"/><circle cx="4.5" cy="4.5" r="0.45" fill="url(#_r_18_-fg-gradient)"/><circle cx="5.5" cy="4.5" r="0.45" fill="url(#_r_18_-fg-gradient)"/><circle cx="6.5" cy="4.5" r="0.45" fill="url(#_r_18_-fg-gradient)"/><circle cx="7.5" cy="4.5" r="0.45" fill="url(#_r_18_-fg-gradient)"/><circle cx="8.5" cy="4.5" r="0.45" fill="url(#_r_18_-fg-gradient)"/><circle cx="9.5" cy="4.5" r="0.45" fill="url(#_r_18_-fg-gradient)"/><circle cx="10.5" cy="4.5" r="0.45" fill="url(#_r_18_-fg-gradient)"/><circle cx="15.5" cy="4.5" r="0.45" fill="url(#_r_18_-fg-gradient)"/><circle cx="16.5" cy="4.5" r="0.45" fill="url(#_r_18_-fg-gradient)"/><circle cx="18.5" cy="4.5" r="0.45" fill="url(#_r_18_-fg-gradient)"/><circle cx="19.5" cy="4.5" r="0.45" fill="url(#_r_18_-fg-gradient)"/><circle cx="20.5" cy="4.5" r="0.45" fill="url(#_r_18_-fg-gradient)"/><circle cx="21.5" cy="4.5" r="0.45" fill="url(#_r_18_-fg-gradient)"/><circle cx="22.5" cy="4.5" r="0.45" fill="url(#_r_18_-fg-gradient)"/><circle cx="23.5" cy="4.5" r="0.45" fill="url(#_r_18_-fg-gradient)"/><circle cx="24.5" cy="4.5" r="0.45" fill="url(#_r_18_-fg-gradient)"/><circle cx="4.5" cy="5.5" r="0.45" fill="url(#_r_18_-fg-gradient)"/><circle cx="10.5" cy="5.5" r="0.45" fill="url(#_r_18_-fg-gradient)"/><circle cx="15.5" cy="5.5" r="0.45" fill="url(#_r_18_-fg-gradient)"/><circle cx="16.5" cy="5.5" r="0.45" fill="url(#_r_18_-fg-gradient)"/><circle cx="18.5" cy="5.5" r="0.45" fill="url(#_r_18_-fg-gradient)"/><circle cx="24.5" cy="5.5" r="0.45" fill="url(#_r_18_-fg-gradient)"/><circle cx="4.5" cy="6.5" r="0.45" fill="url(#_r_18_-fg-gradient)"/><circle cx="6.5" cy="6.5" r="0.45" fill="url(#_r_18_-fg-gradient)"/><circle cx="7.5" cy="6.5" r="0.45" fill="url(#_r_18_-fg-gradient)"/><circle cx="8.5" cy="6.5" r="0.45" fill="url(#_r_18_-fg-gradient)"/><circle cx="10.5" cy="6.5" r="0.45" fill="url(#_r_18_-fg-gradient)"/><circle cx="12.5" cy="6.5" r="0.45" fill="url(#_r_18_-fg-gradient)"/><circle cx="13.5" cy="6.5" r="0.45" fill="url(#_r_18_-fg-gradient)"/><circle cx="14.5" cy="6.5" r="0.45" fill="url(#_r_18_-fg-gradient)"/><circle cx="15.5" cy="6.5" r="0.45" fill="url(#_r_18_-fg-gradient)"/><circle cx="18.5" cy="6.5" r="0.45" fill="url(#_r_18_-fg-gradient)"/><circle cx="20.5" cy="6.5" r="0.45" fill="url(#_r_18_-fg-gradient)"/><circle cx="21.5" cy="6.5" r="0.45" fill="url(#_r_18_-fg-gradient)"/><circle cx="22.5" cy="6.5" r="0.45" fill="url(#_r_18_-fg-gradient)"/><circle cx="24.5" cy="6.5" r="0.45" fill="url(#_r_18_-fg-gradient)"/><circle cx="4.5" cy="7.5" r="0.45" fill="url(#_r_18_-fg-gradient)"/><circle cx="6.5" cy="7.5" r="0.45" fill="url(#_r_18_-fg-gradient)"/><circle cx="7.5" cy="7.5" r="0.45" fill="url(#_r_18_-fg-gradient)"/><circle cx="8.5" cy="7.5" r="0.45" fill="url(#_r_18_-fg-gradient)"/><circle cx="10.5" cy="7.5" r="0.45" fill="url(#_r_18_-fg-gradient)"/><circle cx="12.5" cy="7.5" r="0.45" fill="url(#_r_18_-fg-gradient)"/><circle cx="13.5" cy="7.5" r="0.45" fill="url(#_r_18_-fg-gradient)"/><circle cx="14.5" cy="7.5" r="0.45" fill="url(#_r_18_-fg-gradient)"/><circle cx="15.5" cy="7.5" r="0.45" fill="url(#_r_18_-fg-gradient)"/><circle cx="18.5" cy="7.5" r="0.45" fill="url(#_r_18_-fg-gradient)"/><circle cx="20.5" cy="7.5" r="0.45" fill="url(#_r_18_-fg-gradient)"/><circle cx="21.5" cy="7.5" r="0.45" fill="url(#_r_18_-fg-gradient)"/><circle cx="22.5" cy="7.5" r="0.45" fill="url(#_r_18_-fg-gradient)"/><circle cx="24.5" cy="7.5" r="0.45" fill="url(#_r_18_-fg-gradient)"/><circle cx="4.5" cy="8.5" r="0.45" fill="url(#_r_18_-fg-gradient)"/><circle cx="6.5" cy="8.5" r="0.45" fill="url(#_r_18_-fg-gradient)"/><circle cx="7.5" cy="8.5" r="0.45" fill="url(#_r_18_-fg-gradient)"/><circle cx="8.5" cy="8.5" r="0.45" fill="url(#_r_18_-fg-gradient)"/><circle cx="10.5" cy="8.5" r="0.45" fill="url(#_r_18_-fg-gradient)"/><circle cx="12.5" cy="8.5" r="0.45" fill="url(#_r_18_-fg-gradient)"/><circle cx="13.5" cy="8.5" r="0.45" fill="url(#_r_18_-fg-gradient)"/><circle cx="14.5" cy="8.5" r="0.45" fill="url(#_r_18_-fg-gradient)"/><circle cx="15.5" cy="8.5" r="0.45" fill="url(#_r_18_-fg-gradient)"/><circle cx="16.5" cy="8.5" r="0.45" fill="url(#_r_18_-fg-gradient)"/><circle cx="18.5" cy="8.5" r="0.45" fill="url(#_r_18_-fg-gradient)"/><circle cx="20.5" cy="8.5" r="0.45" fill="url(#_r_18_-fg-gradient)"/><circle cx="21.5" cy="8.5" r="0.45" fill="url(#_r_18_-fg-gradient)"/><circle cx="22.5" cy="8.5" r="0.45" fill="url(#_r_18_-fg-gradient)"/><circle cx="24.5" cy="8.5" r="0.45" fill="url(#_r_18_-fg-gradient)"/><circle cx="4.5" cy="9.5" r="0.45" fill="url(#_r_18_-fg-gradient)"/><circle cx="10.5" cy="9.5" r="0.45" fill="url(#_r_18_-fg-gradient)"/><circle cx="12.5" cy="9.5" r="0.45" fill="url(#_r_18_-fg-gradient)"/><circle cx="13.5" cy="9.5" r="0.45" fill="url(#_r_18_-fg-gradient)"/><circle cx="14.5" cy="9.5" r="0.45" fill="url(#_r_18_-fg-gradient)"/><circle cx="16.5" cy="9.5" r="0.45" fill="url(#_r_18_-fg-gradient)"/><circle cx="18.5" cy="9.5" r="0.45" fill="url(#_r_18_-fg-gradient)"/><circle cx="24.5" cy="9.5" r="0.45" fill="url(#_r_18_-fg-gradient)"/><circle cx="4.5" cy="10.5" r="0.45" fill="url(#_r_18_-fg-gradient)"/><circle cx="5.5" cy="10.5" r="0.45" fill="url(#_r_18_-fg-gradient)"/><circle cx="6.5" cy="10.5" r="0.45" fill="url(#_r_18_-fg-gradient)"/><circle cx="7.5" cy="10.5" r="0.45" fill="url(#_r_18_-fg-gradient)"/><circle cx="8.5" cy="10.5" r="0.45" fill="url(#_r_18_-fg-gradient)"/><circle cx="9.5" cy="10.5" r="0.45" fill="url(#_r_18_-fg-gradient)"/><circle cx="10.5" cy="10.5" r="0.45" fill="url(#_r_18_-fg-gradient)"/><circle cx="12.5" cy="10.5" r="0.45" fill="url(#_r_18_-fg-gradient)"/><circle cx="14.5" cy="10.5" r="0.45" fill="url(#_r_18_-fg-gradient)"/><circle cx="16.5" cy="10.5" r="0.45" fill="url(#_r_18_-fg-gradient)"/><circle cx="18.5" cy="10.5" r="0.45" fill="url(#_r_18_-fg-gradient)"/><circle cx="19.5" cy="10.5" r="0.45" fill="url(#_r_18_-fg-gradient)"/><circle cx="20.5" cy="10.5" r="0.45" fill="url(#_r_18_-fg-gradient)"/><circle cx="21.5" cy="10.5" r="0.45" fill="url(#_r_18_-fg-gradient)"/><circle cx="22.5" cy="10.5" r="0.45" fill="url(#_r_18_-fg-gradient)"/><circle cx="23.5" cy="10.5" r="0.45" fill="url(#_r_18_-fg-gradient)"/><circle cx="24.5" cy="10.5" r="0.45" fill="url(#_r_18_-fg-gradient)"/><circle cx="12.5" cy="11.5" r="0.45" fill="url(#_r_18_-fg-gradient)"/><circle cx="14.5" cy="11.5" r="0.45" fill="url(#_r_18_-fg-gradient)"/><circle cx="15.5" cy="11.5" r="0.45" fill="url(#_r_18_-fg-gradient)"/><circle cx="16.5" cy="11.5" r="0.45" fill="url(#_r_18_-fg-gradient)"/><circle cx="4.5" cy="12.5" r="0.45" fill="url(#_r_18_-fg-gradient)"/><circle cx="6.5" cy="12.5" r="0.45" fill="url(#_r_18_-fg-gradient)"/><circle cx="7.5" cy="12.5" r="0.45" fill="url(#_r_18_-fg-gradient)"/><circle cx="8.5" cy="12.5" r="0.45" fill="url(#_r_18_-fg-gradient)"/><circle cx="9.5" cy="12.5" r="0.45" fill="url(#_r_18_-fg-gradient)"/><circle cx="10.5" cy="12.5" r="0.45" fill="url(#_r_18_-fg-gradient)"/><circle cx="16.5" cy="12.5" r="0.45" fill="url(#_r_18_-fg-gradient)"/><circle cx="18.5" cy="12.5" r="0.45" fill="url(#_r_18_-fg-gradient)"/><circle cx="19.5" cy="12.5" r="0.45" fill="url(#_r_18_-fg-gradient)"/><circle cx="20.5" cy="12.5" r="0.45" fill="url(#_r_18_-fg-gradient)"/><circle cx="21.5" cy="12.5" r="0.45" fill="url(#_r_18_-fg-gradient)"/><circle cx="22.5" cy="12.5" r="0.45" fill="url(#_r_18_-fg-gradient)"/><circle cx="5.5" cy="13.5" r="0.45" fill="url(#_r_18_-fg-gradient)"/><circle cx="9.5" cy="13.5" r="0.45" fill="url(#_r_18_-fg-gradient)"/><circle cx="11.5" cy="13.5" r="0.45" fill="url(#_r_18_-fg-gradient)"/><circle cx="12.5" cy="13.5" r="0.45" fill="url(#_r_18_-fg-gradient)"/><circle cx="14.5" cy="13.5" r="0.45" fill="url(#_r_18_-fg-gradient)"/><circle cx="16.5" cy="13.5" r="0.45" fill="url(#_r_18_-fg-gradient)"/><circle cx="19.5" cy="13.5" r="0.45" fill="url(#_r_18_-fg-gradient)"/><circle cx="22.5" cy="13.5" r="0.45" fill="url(#_r_18_-fg-gradient)"/><circle cx="23.5" cy="13.5" r="0.45" fill="url(#_r_18_-fg-gradient)"/><circle cx="24.5" cy="13.5" r="0.45" fill="url(#_r_18_-fg-gradient)"/><circle cx="4.5" cy="14.5" r="0.45" fill="url(#_r_18_-fg-gradient)"/><circle cx="6.5" cy="14.5" r="0.45" fill="url(#_r_18_-fg-gradient)"/><circle cx="8.5" cy="14.5" r="0.45" fill="url(#_r_18_-fg-gradient)"/><circle cx="10.5" cy="14.5" r="0.45" fill="url(#_r_18_-fg-gradient)"/><circle cx="11.5" cy="14.5" r="0.45" fill="url(#_r_18_-fg-gradient)"/><circle cx="12.5" cy="14.5" r="0.45" fill="url(#_r_18_-fg-gradient)"/><circle cx="13.5" cy="14.5" r="0.45" fill="url(#_r_18_-fg-gradient)"/><circle cx="15.5" cy="14.5" r="0.45" fill="url(#_r_18_-fg-gradient)"/><circle cx="17.5" cy="14.5" r="0.45" fill="url(#_r_18_-fg-gradient)"/><circle cx="20.5" cy="14.5" r="0.45" fill="url(#_r_18_-fg-gradient)"/><circle cx="23.5" cy="14.5" r="0.45" fill="url(#_r_18_-fg-gradient)"/><circle cx="4.5" cy="15.5" r="0.45" fill="url(#_r_18_-fg-gradient)"/><circle cx="5.5" cy="15.5" r="0.45" fill="url(#_r_18_-fg-gradient)"/><circle cx="8.5" cy="15.5" r="0.45" fill="url(#_r_18_-fg-gradient)"/><circle cx="9.5" cy="15.5" r="0.45" fill="url(#_r_18_-fg-gradient)"/><circle cx="11.5" cy="15.5" r="0.45" fill="url(#_r_18_-fg-gradient)"/><circle cx="12.5" cy="15.5" r="0.45" fill="url(#_r_18_-fg-gradient)"/><circle cx="13.5" cy="15.5" r="0.45" fill="url(#_r_18_-fg-gradient)"/><circle cx="14.5" cy="15.5" r="0.45" fill="url(#_r_18_-fg-gradient)"/><circle cx="19.5" cy="15.5" r="0.45" fill="url(#_r_18_-fg-gradient)"/><circle cx="20.5" cy="15.5" r="0.45" fill="url(#_r_18_-fg-gradient)"/><circle cx="21.5" cy="15.5" r="0.45" fill="url(#_r_18_-fg-gradient)"/><circle cx="22.5" cy="15.5" r="0.45" fill="url(#_r_18_-fg-gradient)"/><circle cx="24.5" cy="15.5" r="0.45" fill="url(#_r_18_-fg-gradient)"/><circle cx="5.5" cy="16.5" r="0.45" fill="url(#_r_18_-fg-gradient)"/><circle cx="8.5" cy="16.5" r="0.45" fill="url(#_r_18_-fg-gradient)"/><circle cx="10.5" cy="16.5" r="0.45" fill="url(#_r_18_-fg-gradient)"/><circle cx="11.5" cy="16.5" r="0.45" fill="url(#_r_18_-fg-gradient)"/><circle cx="12.5" cy="16.5" r="0.45" fill="url(#_r_18_-fg-gradient)"/><circle cx="14.5" cy="16.5" r="0.45" fill="url(#_r_18_-fg-gradient)"/><circle cx="15.5" cy="16.5" r="0.45" fill="url(#_r_18_-fg-gradient)"/><circle cx="17.5" cy="16.5" r="0.45" fill="url(#_r_18_-fg-gradient)"/><circle cx="20.5" cy="16.5" r="0.45" fill="url(#_r_18_-fg-gradient)"/><circle cx="23.5" cy="16.5" r="0.45" fill="url(#_r_18_-fg-gradient)"/><circle cx="12.5" cy="17.5" r="0.45" fill="url(#_r_18_-fg-gradient)"/><circle cx="15.5" cy="17.5" r="0.45" fill="url(#_r_18_-fg-gradient)"/><circle cx="16.5" cy="17.5" r="0.45" fill="url(#_r_18_-fg-gradient)"/><circle cx="17.5" cy="17.5" r="0.45" fill="url(#_r_18_-fg-gradient)"/><circle cx="18.5" cy="17.5" r="0.45" fill="url(#_r_18_-fg-gradient)"/><circle cx="21.5" cy="17.5" r="0.45" fill="url(#_r_18_-fg-gradient)"/><circle cx="22.5" cy="17.5" r="0.45" fill="url(#_r_18_-fg-gradient)"/><circle cx="24.5" cy="17.5" r="0.45" fill="url(#_r_18_-fg-gradient)"/><circle cx="4.5" cy="18.5" r="0.45" fill="url(#_r_18_-fg-gradient)"/><circle cx="5.5" cy="18.5" r="0.45" fill="url(#_r_18_-fg-gradient)"/><circle cx="6.5" cy="18.5" r="0.45" fill="url(#_r_18_-fg-gradient)"/><circle cx="7.5" cy="18.5" r="0.45" fill="url(#_r_18_-fg-gradient)"/><circle cx="8.5" cy="18.5" r="0.45" fill="url(#_r_18_-fg-gradient)"/><circle cx="9.5" cy="18.5" r="0.45" fill="url(#_r_18_-fg-gradient)"/><circle cx="10.5" cy="18.5" r="0.45" fill="url(#_r_18_-fg-gradient)"/><circle cx="13.5" cy="18.5" r="0.45" fill="url(#_r_18_-fg-gradient)"/><circle cx="16.5" cy="18.5" r="0.45" fill="url(#_r_18_-fg-gradient)"/><circle cx="18.5" cy="18.5" r="0.45" fill="url(#_r_18_-fg-gradient)"/><circle cx="19.5" cy="18.5" r="0.45" fill="url(#_r_18_-fg-gradient)"/><circle cx="21.5" cy="18.5" r="0.45" fill="url(#_r_18_-fg-gradient)"/><circle cx="22.5" cy="18.5" r="0.45" fill="url(#_r_18_-fg-gradient)"/><circle cx="23.5" cy="18.5" r="0.45" fill="url(#_r_18_-fg-gradient)"/><circle cx="4.5" cy="19.5" r="0.45" fill="url(#_r_18_-fg-gradient)"/><circle cx="10.5" cy="19.5" r="0.45" fill="url(#_r_18_-fg-gradient)"/><circle cx="12.5" cy="19.5" r="0.45" fill="url(#_r_18_-fg-gradient)"/><circle cx="13.5" cy="19.5" r="0.45" fill="url(#_r_18_-fg-gradient)"/><circle cx="14.5" cy="19.5" r="0.45" fill="url(#_r_18_-fg-gradient)"/><circle cx="15.5" cy="19.5" r="0.45" fill="url(#_r_18_-fg-gradient)"/><circle cx="16.5" cy="19.5" r="0.45" fill="url(#_r_18_-fg-gradient)"/><circle cx="17.5" cy="19.5" r="0.45" fill="url(#_r_18_-fg-gradient)"/><circle cx="18.5" cy="19.5" r="0.45" fill="url(#_r_18_-fg-gradient)"/><circle cx="21.5" cy="19.5" r="0.45" fill="url(#_r_18_-fg-gradient)"/><circle cx="22.5" cy="19.5" r="0.45" fill="url(#_r_18_-fg-gradient)"/><circle cx="4.5" cy="20.5" r="0.45" fill="url(#_r_18_-fg-gradient)"/><circle cx="6.5" cy="20.5" r="0.45" fill="url(#_r_18_-fg-gradient)"/><circle cx="7.5" cy="20.5" r="0.45" fill="url(#_r_18_-fg-gradient)"/><circle cx="8.5" cy="20.5" r="0.45" fill="url(#_r_18_-fg-gradient)"/><circle cx="10.5" cy="20.5" r="0.45" fill="url(#_r_18_-fg-gradient)"/><circle cx="12.5" cy="20.5" r="0.45" fill="url(#_r_18_-fg-gradient)"/><circle cx="14.5" cy="20.5" r="0.45" fill="url(#_r_18_-fg-gradient)"/><circle cx="16.5" cy="20.5" r="0.45" fill="url(#_r_18_-fg-gradient)"/><circle cx="19.5" cy="20.5" r="0.45" fill="url(#_r_18_-fg-gradient)"/><circle cx="23.5" cy="20.5" r="0.45" fill="url(#_r_18_-fg-gradient)"/><circle cx="4.5" cy="21.5" r="0.45" fill="url(#_r_18_-fg-gradient)"/><circle cx="6.5" cy="21.5" r="0.45" fill="url(#_r_18_-fg-gradient)"/><circle cx="7.5" cy="21.5" r="0.45" fill="url(#_r_18_-fg-gradient)"/><circle cx="8.5" cy="21.5" r="0.45" fill="url(#_r_18_-fg-gradient)"/><circle cx="10.5" cy="21.5" r="0.45" fill="url(#_r_18_-fg-gradient)"/><circle cx="12.5" cy="21.5" r="0.45" fill="url(#_r_18_-fg-gradient)"/><circle cx="13.5" cy="21.5" r="0.45" fill="url(#_r_18_-fg-gradient)"/><circle cx="16.5" cy="21.5" r="0.45" fill="url(#_r_18_-fg-gradient)"/><circle cx="19.5" cy="21.5" r="0.45" fill="url(#_r_18_-fg-gradient)"/><circle cx="21.5" cy="21.5" r="0.45" fill="url(#_r_18_-fg-gradient)"/><circle cx="22.5" cy="21.5" r="0.45" fill="url(#_r_18_-fg-gradient)"/><circle cx="4.5" cy="22.5" r="0.45" fill="url(#_r_18_-fg-gradient)"/><circle cx="6.5" cy="22.5" r="0.45" fill="url(#_r_18_-fg-gradient)"/><circle cx="7.5" cy="22.5" r="0.45" fill="url(#_r_18_-fg-gradient)"/><circle cx="8.5" cy="22.5" r="0.45" fill="url(#_r_18_-fg-gradient)"/><circle cx="10.5" cy="22.5" r="0.45" fill="url(#_r_18_-fg-gradient)"/><circle cx="12.5" cy="22.5" r="0.45" fill="url(#_r_18_-fg-gradient)"/><circle cx="14.5" cy="22.5" r="0.45" fill="url(#_r_18_-fg-gradient)"/><circle cx="15.5" cy="22.5" r="0.45" fill="url(#_r_18_-fg-gradient)"/><circle cx="17.5" cy="22.5" r="0.45" fill="url(#_r_18_-fg-gradient)"/><circle cx="20.5" cy="22.5" r="0.45" fill="url(#_r_18_-fg-gradient)"/><circle cx="21.5" cy="22.5" r="0.45" fill="url(#_r_18_-fg-gradient)"/><circle cx="22.5" cy="22.5" r="0.45" fill="url(#_r_18_-fg-gradient)"/><circle cx="4.5" cy="23.5" r="0.45" fill="url(#_r_18_-fg-gradient)"/><circle cx="10.5" cy="23.5" r="0.45" fill="url(#_r_18_-fg-gradient)"/><circle cx="13.5" cy="23.5" r="0.45" fill="url(#_r_18_-fg-gradient)"/><circle cx="14.5" cy="23.5" r="0.45" fill="url(#_r_18_-fg-gradient)"/><circle cx="19.5" cy="23.5" r="0.45" fill="url(#_r_18_-fg-gradient)"/><circle cx="20.5" cy="23.5" r="0.45" fill="url(#_r_18_-fg-gradient)"/><circle cx="22.5" cy="23.5" r="0.45" fill="url(#_r_18_-fg-gradient)"/><circle cx="4.5" cy="24.5" r="0.45" fill="url(#_r_18_-fg-gradient)"/><circle cx="5.5" cy="24.5" r="0.45" fill="url(#_r_18_-fg-gradient)"/><circle cx="6.5" cy="24.5" r="0.45" fill="url(#_r_18_-fg-gradient)"/><circle cx="7.5" cy="24.5" r="0.45" fill="url(#_r_18_-fg-gradient)"/><circle cx="8.5" cy="24.5" r="0.45" fill="url(#_r_18_-fg-gradient)"/><circle cx="9.5" cy="24.5" r="0.45" fill="url(#_r_18_-fg-gradient)"/><circle cx="10.5" cy="24.5" r="0.45" fill="url(#_r_18_-fg-gradient)"/><circle cx="12.5" cy="24.5" r="0.45" fill="url(#_r_18_-fg-gradient)"/><circle cx="15.5" cy="24.5" r="0.45" fill="url(#_r_18_-fg-gradient)"/><circle cx="17.5" cy="24.5" r="0.45" fill="url(#_r_18_-fg-gradient)"/><circle cx="20.5" cy="24.5" r="0.45" fill="url(#_r_18_-fg-gradient)"/><circle cx="22.5" cy="24.5" r="0.45" fill="url(#_r_18_-fg-gradient)"/><circle cx="23.5" cy="24.5" r="0.45" fill="url(#_r_18_-fg-gradient)"/></svg>